<svg version="1.1" id="Layer_1" xmlns="http://www.w3.org/2000/svg" xmlns:xlink="http://www.w3.org/1999/xlink" x="0px" y="0px"
	 width="100%" viewBox="0 0 288 288" enable-background="new 0 0 288 288" xml:space="preserve">
<path fill="#8ab4f8" opacity="1.000000" stroke="none" 
	d="
M122.212723,218.080994 
	C111.970924,236.848679 88.874931,239.638245 72.769485,225.194641 
	C62.473434,215.960999 55.872292,204.870941 51.170475,192.402817 
	C49.264214,187.347855 48.797165,181.699188 48.052811,176.268936 
	C46.926277,168.050537 45.331318,159.783508 45.366211,151.543213 
	C45.430771,136.297058 46.286919,121.119698 50.464638,106.169174 
	C52.442558,99.090927 54.911003,92.184868 56.826420,85.223778 
	C60.405807,72.215462 66.057098,60.578625 73.768745,49.828075 
	C77.426193,44.729347 81.704674,39.950504 86.313354,35.687962 
	C94.012192,28.567352 104.193993,30.949997 108.952042,40.236309 
	C110.963280,44.161655 113.951790,47.576122 116.104927,51.440739 
	C123.898178,65.428703 127.632935,80.662514 127.336617,96.501610 
	C127.082047,110.109550 125.925842,123.808266 123.760063,137.239777 
	C121.928673,148.597488 117.082657,159.102966 111.453735,169.374283 
	C108.596085,174.588760 106.560753,178.977310 99.497269,180.111816 
	C101.724579,190.967712 103.928177,201.708038 106.246979,213.009842 
	C106.249817,213.007492 105.649139,213.562973 104.985641,214.029022 
	C104.464470,214.395096 103.865677,214.650665 103.281334,214.966125 
	C95.791962,211.075974 94.886406,203.362350 93.873756,196.804016 
	C91.308701,180.191635 87.887581,163.842606 83.122147,147.743393 
	C79.153122,134.334671 75.256210,120.904320 71.423859,107.456039 
	C71.151779,106.501244 71.307121,104.797104 71.915710,104.369621 
	C72.775368,103.765793 74.473030,103.556419 75.406540,104.011353 
	C77.861320,105.207657 80.096748,106.854088 83.038193,108.711960 
	C82.518562,94.730003 83.759064,80.859642 90.938850,68.235916 
	C96.792946,69.214027 99.463821,73.046593 100.564247,78.271545 
	C103.077805,90.206276 102.722549,102.186836 101.150124,114.207710 
	C98.970879,130.867523 99.375641,147.600647 100.106369,164.326431 
	C100.145699,165.226593 101.394661,166.900192 101.746071,166.816086 
	C103.195976,166.469116 105.257843,165.927750 105.764626,164.838791 
	C109.011292,157.862457 112.563873,150.918091 114.745338,143.585220 
	C117.304993,134.981125 119.169540,126.066910 120.279106,117.155663 
	C122.803719,96.879692 120.934113,77.014381 112.495697,58.118977 
	C111.086365,54.963177 109.555946,51.810787 107.666458,48.928940 
	C99.874207,37.044273 96.040413,38.816765 88.069283,46.475239 
	C79.019493,55.170063 73.023628,65.847694 67.817993,77.204880 
	C58.156528,98.283401 54.581669,120.638092 53.502251,143.421005 
	C52.521931,164.112411 54.411060,184.692474 63.257835,203.768600 
	C67.633621,213.203995 74.779106,221.132736 84.113693,225.992157 
	C91.730217,229.957169 99.954369,228.955826 107.060089,223.923920 
	C111.883835,220.508011 116.178070,216.344360 121.281540,212.200684 
	C122.233994,211.208191 122.614021,210.530136 122.994041,209.852081 
	C124.525108,208.196228 126.056175,206.540375 127.709457,204.752350 
	C128.727509,205.322144 129.677612,205.853912 130.866058,206.519073 
	C128.836334,209.611374 126.815048,212.690811 124.161789,215.928284 
	C122.672081,216.586929 121.814362,217.087524 120.956650,217.588104 
	C121.375343,217.752396 121.794037,217.916687 122.212723,218.080994 
M89.135345,112.332909 
	C89.677589,116.557808 90.219841,120.782707 90.762085,125.007607 
	C94.288246,111.868698 94.998047,88.807335 91.439331,84.723694 
	C90.675682,93.621872 89.912033,102.520042 89.135345,112.332909 
z"/>
<path fill="#8ab4f8" opacity="1.000000" stroke="none" 
	d="
M179.020905,138.203552 
	C178.399429,139.936737 177.499863,142.457855 177.133957,142.382645 
	C174.995132,141.943008 172.981247,140.895477 170.374374,139.827469 
	C169.636337,141.740936 168.533569,144.600067 167.219864,148.006042 
	C164.761002,147.753448 162.090485,147.479111 158.938751,147.155334 
	C157.889236,148.912994 156.611435,151.200165 155.194016,153.397278 
	C151.883362,158.529007 148.017776,158.964783 145.407745,153.745590 
	C143.134338,149.199600 142.160599,143.899704 141.225113,138.820114 
	C140.413605,134.413620 140.460632,129.848999 140.118378,125.221100 
	C147.639084,125.700943 149.897781,128.369843 149.204010,134.449356 
	C148.922485,136.916443 149.157547,139.442505 149.904251,141.975662 
	C153.193405,138.483032 154.328110,134.763214 153.558426,130.194046 
	C153.263550,128.443497 154.882645,126.370514 155.629562,124.444458 
	C157.712921,126.028175 160.464111,127.225510 161.673065,129.315109 
	C162.680801,131.056946 161.879639,133.845337 161.879639,136.238739 
	C164.648773,135.287643 164.799423,135.317703 166.258865,128.004547 
	C166.955276,124.514877 166.954651,120.886108 167.296173,117.021332 
	C169.246613,117.021332 171.171112,117.021332 172.280594,117.021332 
	C173.869888,114.792549 175.085739,113.087479 176.301590,111.382401 
	C179.662842,114.026352 183.024078,116.670303 186.882126,119.705040 
	C188.892868,118.105293 190.040222,114.867714 189.678741,110.830376 
	C189.535858,109.234550 190.046600,107.580200 190.259735,105.952499 
	C192.140411,106.473633 195.187241,106.472122 195.696304,107.607979 
	C197.708344,112.097336 199.244827,116.883896 200.140396,121.711823 
	C200.301041,122.577881 196.597443,124.160728 194.337143,124.920357 
	C189.461288,133.614532 187.584808,133.752151 179.719116,124.407898 
	C179.444016,129.453369 179.216675,133.622711 179.020905,138.203552 
z"/>
<path fill="#8ab4f8" opacity="1.000000" stroke="none" 
	d="
M170.360336,174.338287 
	C181.797684,165.467377 192.929764,156.783417 204.196136,148.277298 
	C206.635452,146.435638 209.982422,145.682953 212.155640,143.629074 
	C215.275421,140.680664 217.883850,137.126587 220.370590,133.591873 
	C222.662643,130.333862 224.465042,126.734550 226.585007,123.349396 
	C226.963318,122.745300 227.838593,122.452431 228.687134,121.878815 
	C232.603287,126.504463 230.259659,131.112442 227.825195,134.213135 
	C222.093552,141.513306 215.908081,148.640976 208.957474,154.760895 
	C195.671188,166.459305 181.497940,177.146973 168.133453,188.761185 
	C159.705948,196.085022 152.103958,204.355743 144.066437,212.134308 
	C142.664841,213.490768 140.939102,214.512329 139.423721,215.643295 
	C134.977234,211.862030 135.198181,206.556702 139.820023,202.122650 
	C143.465637,198.625168 147.168381,195.184875 150.913498,191.794022 
	C157.281982,186.028000 163.703796,180.320862 170.360336,174.338287 
z"/>
<path fill="#8ab4f8" opacity="1.000000" stroke="none" 
	d="
M212.022903,82.170303 
	C213.860550,80.877365 215.600174,79.960907 217.335907,79.037125 
	C223.175400,75.929253 224.163910,76.211258 227.801132,81.592384 
	C221.806122,85.918129 215.350510,89.745438 210.133331,94.840767 
	C208.542709,96.394226 210.360931,101.438034 210.617966,104.883331 
	C211.296890,105.109840 211.975815,105.336349 212.654724,105.562866 
	C216.221481,101.951180 219.788239,98.339485 224.327972,93.742561 
	C225.336823,96.687309 227.480392,99.710342 226.699524,101.254829 
	C224.073853,106.448120 222.410553,113.641266 215.220886,114.047958 
	C207.474106,114.486160 204.291687,108.415131 202.566620,102.830925 
	C200.178116,101.729431 197.538300,101.334602 196.988113,100.046928 
	C196.323074,98.490417 197.473953,96.184196 197.754349,94.190536 
	C198.066437,91.971420 198.417221,89.743973 198.501709,87.510719 
	C198.576920,85.522881 198.311310,83.522156 198.141571,80.582634 
	C203.364273,82.390114 207.194031,88.000893 212.022903,82.170303 
z"/>
<path fill="#8ab4f8" opacity="1.000000" stroke="none" 
	d="
M175.744385,204.121155 
	C180.237152,206.607361 176.365295,209.350037 176.448822,211.871384 
	C174.527451,211.896255 172.038223,212.693649 170.802734,211.785461 
	C168.217361,209.884949 167.638565,206.946686 169.853226,204.049011 
	C171.675400,201.664810 173.541412,201.632675 175.744385,204.121155 
z"/>
<path fill="#8ab4f8" opacity="1.000000" stroke="none" 
	d="
M191.974808,92.191406 
	C192.325104,94.543579 192.582855,96.513519 192.840607,98.483452 
	C192.196899,98.767159 191.553207,99.050873 190.909500,99.334579 
	C188.300400,96.440865 185.691315,93.547157 183.082245,90.653481 
	C188.053848,86.079155 189.101456,86.279129 191.974808,92.191406 
z"/>
<path fill="#8ab4f8" opacity="1.000000" stroke="none" 
	d="
M193.133057,186.373154 
	C194.908875,185.651489 196.822235,184.603485 198.181290,185.093353 
	C199.923019,185.721130 201.584335,187.385147 202.493271,189.035995 
	C202.782135,189.560654 200.702087,192.311722 199.444061,192.529312 
	C197.918121,192.793274 195.838654,191.785629 194.524078,190.694946 
	C193.578552,189.910431 193.493301,188.089066 193.133057,186.373154 
z"/>
<path fill="#8ab4f8" opacity="1.000000" stroke="none" 
	d="
M122.507416,218.014923 
	C121.794037,217.916687 121.375343,217.752396 120.956650,217.588104 
	C121.814362,217.087524 122.672081,216.586929 123.857773,216.080017 
	C123.724525,216.698776 123.263313,217.323822 122.507416,218.014923 
z"/>
<path fill="#8ab4f8" opacity="1.000000" stroke="none" 
	d="
M122.713181,209.956909 
	C122.614021,210.530136 122.233994,211.208191 121.545609,211.947250 
	C121.635597,211.359421 122.033958,210.710587 122.713181,209.956909 
z"/>
<path fill="#8ab4f8" opacity="1.000000" stroke="none" 
	d="
M89.141861,111.875565 
	C89.912033,102.520042 90.675682,93.621872 91.439331,84.723694 
	C94.998047,88.807335 94.288246,111.868698 90.762085,125.007607 
	C90.219841,120.782707 89.677589,116.557808 89.141861,111.875565 
z"/>
</svg>